<?xml version="1.0" encoding="UTF-8" standalone="no"?>
<!-- Created with Inkscape (http://www.inkscape.org/) -->

<svg
   width="128"
   height="128"
   viewBox="0 0 33.866667 33.866667"
   version="1.1"
   id="svg1"
   inkscape:version="1.3.2 (091e20e, 2023-11-25, custom)"
   sodipodi:docname="store_icon_path.svg"
   inkscape:export-filename="store_icon.png"
   inkscape:export-xdpi="96"
   inkscape:export-ydpi="96"
   xml:space="preserve"
   xmlns:inkscape="http://www.inkscape.org/namespaces/inkscape"
   xmlns:sodipodi="http://sodipodi.sourceforge.net/DTD/sodipodi-0.dtd"
   xmlns="http://www.w3.org/2000/svg"
   xmlns:svg="http://www.w3.org/2000/svg"><sodipodi:namedview
     id="namedview1"
     pagecolor="#808080"
     bordercolor="#000000"
     borderopacity="0.25"
     inkscape:showpageshadow="2"
     inkscape:pageopacity="0.0"
     inkscape:pagecheckerboard="0"
     inkscape:deskcolor="#d1d1d1"
     inkscape:document-units="mm"
     showgrid="true"
     inkscape:zoom="4.4901281"
     inkscape:cx="52.114327"
     inkscape:cy="77.392002"
     inkscape:window-width="1920"
     inkscape:window-height="1129"
     inkscape:window-x="-8"
     inkscape:window-y="-8"
     inkscape:window-maximized="1"
     inkscape:current-layer="g3"><inkscape:grid
       id="grid1"
       units="px"
       originx="0"
       originy="0"
       spacingx="0.26458333"
       spacingy="0.26458333"
       empcolor="#0099e5"
       empopacity="0.30196078"
       color="#0099e5"
       opacity="0.14901961"
       empspacing="5"
       dotted="false"
       gridanglex="30"
       gridanglez="30"
       visible="true" /></sodipodi:namedview><defs
     id="defs1" /><g
     inkscape:label="Layer 1"
     inkscape:groupmode="layer"
     id="layer1"><g
       id="g3"
       transform="matrix(1.1839078,0,0,1.1839078,-3.0898432,-3.1141724)"><path
         id="path2-2"
         style="font-variation-settings:'wght' 700;fill:#ffffff;stroke-width:0.541193"
         d="M 28.310417,16.933332 A 11.90625,11.90625 0 0 1 16.404167,28.839582 11.90625,11.90625 0 0 1 4.4979172,16.933332 11.90625,11.90625 0 0 1 16.404167,5.0270824 11.90625,11.90625 0 0 1 28.310417,16.933332 Z" /><g
         id="g2"
         transform="matrix(2,0,0,2,4.233334,4.2333345)"><path
           id="circle2"
           style="font-variation-settings:'wght' 700;vector-effect:non-scaling-stroke;fill:#aa0000;stroke-width:0.194028;-inkscape-stroke:hairline"
           d="M 12.435416,6.3499994 A 5.8208327,5.8208327 0 0 1 6.6145835,12.170832 5.8208327,5.8208327 0 0 1 0.79375076,6.3499994 5.8208327,5.8208327 0 0 1 6.6145835,0.5291667 5.8208327,5.8208327 0 0 1 12.435416,6.3499994 Z" /><path
           id="path2"
           style="font-variation-settings:'wght' 700;vector-effect:non-scaling-stroke;fill:#1a1a1a;stroke-width:0.194028;-inkscape-stroke:hairline"
           d="M 11.906249,6.3499994 A 5.8208327,5.8208327 0 0 1 6.0854158,12.170832 5.8208327,5.8208327 0 0 1 0.26458311,6.3499994 5.8208327,5.8208327 0 0 1 6.0854158,0.5291667 5.8208327,5.8208327 0 0 1 11.906249,6.3499994 Z" /><path
           d="m 9.5716819,9.632074 q -0.3486269,0 -0.5478423,-0.2091762 Q 8.8246242,9.2137217 8.8246242,8.7854086 V 3.9145922 q 0,-0.4283131 0.1992154,-0.6374892 0.1992154,-0.2091762 0.5478423,-0.2091762 0.3486269,0 0.5478421,0.2091762 0.199216,0.2091761 0.199216,0.6374892 v 4.8708164 q 0,0.4283131 -0.199216,0.6374892 Q 9.9203088,9.632074 9.5716819,9.632074 Z M 6.0555302,3.6356907 q 0.2091762,0 0.3785093,0.089647 0.1792938,0.079686 0.3984307,0.2988231 l 1.514037,1.5040762 0.099608,0.089647 Q 8.6552911,5.82706 8.744938,5.9764715 q 0.099608,0.1494116 0.099608,0.3785093 0,0.2290977 -0.099608,0.3785092 -0.089647,0.1494116 -0.2988231,0.3585877 l -0.099608,0.089647 -1.514037,1.5040762 Q 6.6133333,8.9049378 6.4340395,8.9945847 6.2647064,9.0742709 6.0555302,9.0742709 5.7367856,9.0742709 5.547531,8.9049378 5.3682371,8.7356047 5.3682371,8.466664 q 0,-0.219137 0.089647,-0.3585878 0.089647,-0.1494115 0.2888623,-0.3386661 l 0.079686,-0.079686 0.9562339,-0.9661946 0.12949,0.3187446 H 2.648947 q -0.7968616,0 -0.7968616,-0.6872931 0,-0.2689408 0.1992154,-0.478117 Q 2.2505162,5.6676877 2.648947,5.6676877 H 6.9021956 L 6.7727056,5.9864323 5.8264325,5.0401592 5.7766287,4.9903553 Q 5.5674525,4.7811792 5.4678448,4.6317676 q -0.099608,-0.1593723 -0.099608,-0.38847 0,-0.2689408 0.1792939,-0.4382738 0.1892546,-0.1693331 0.5079992,-0.1693331 z"
           id="text1"
           style="font-size:9.96077px;font-family:'Gorton Perfected';-inkscape-font-specification:'Gorton Perfected, @wght=700';font-variation-settings:'wght' 700;text-align:center;text-anchor:middle;fill:#aa0000;stroke-width:0.124803"
           aria-label="⇥" /><path
           d="m 8.7779197,9.632074 q -0.3486269,0 -0.5478423,-0.2091762 Q 8.030862,9.2137217 8.030862,8.7854086 V 3.9145922 q 0,-0.4283131 0.1992154,-0.6374892 0.1992154,-0.2091762 0.5478423,-0.2091762 0.3486269,0 0.5478423,0.2091762 0.1992154,0.2091761 0.1992154,0.6374892 v 4.8708164 q 0,0.4283131 -0.1992154,0.6374892 Q 9.1265466,9.632074 8.7779197,9.632074 Z M 5.261768,3.6356907 q 0.2091762,0 0.3785092,0.089647 0.1792939,0.079686 0.3984308,0.2988231 l 1.514037,1.5040762 0.099608,0.089647 q 0.2091762,0.2091762 0.2988231,0.3585877 0.099608,0.1494116 0.099608,0.3785093 0,0.2290977 -0.099608,0.3785092 -0.089647,0.1494116 -0.2988231,0.3585877 L 7.552745,7.1817247 6.038708,8.6858009 q -0.2191369,0.2191369 -0.3984308,0.3087838 -0.169333,0.079686 -0.3785092,0.079686 -0.3187446,0 -0.5079993,-0.1693331 Q 4.5744749,8.7356047 4.5744749,8.466664 q 0,-0.219137 0.089647,-0.3585878 0.089647,-0.1494115 0.2888623,-0.3386661 l 0.079686,-0.079686 0.9562339,-0.9661946 0.12949,0.3187446 H 1.8551848 q -0.7968616,0 -0.7968616,-0.6872931 0,-0.2689408 0.1992154,-0.478117 Q 1.456754,5.6676877 1.8551848,5.6676877 H 6.1084334 L 5.9789434,5.9864323 5.0326703,5.0401592 4.9828665,4.9903553 Q 4.7736903,4.7811792 4.6740826,4.6317676 q -0.099608,-0.1593723 -0.099608,-0.38847 0,-0.2689408 0.1792938,-0.4382738 Q 4.9430234,3.6356907 5.261768,3.6356907 Z"
           id="text2"
           style="font-size:9.96077px;font-family:'Gorton Perfected';-inkscape-font-specification:'Gorton Perfected, @wght=700';font-variation-settings:'wght' 700;text-align:center;text-anchor:middle;fill:#eaeaea;stroke-width:0.124803"
           aria-label="⇥" /></g></g></g></svg>
